<svg width="662" height="980" viewBox="0 0 662 980" fill="none" xmlns="http://www.w3.org/2000/svg">
<path d="M250.931 942.972L253.431 938.472L257.931 940.972L265.431 931.472L275.931 916.472L278.931 908.972L280.037 905.338M250.931 942.972L240.431 942.472L232.931 939.472L226.431 945.972L225.931 942.972L224.431 941.472L221.431 945.972L220.431 949.472L217.931 948.472L214.931 947.972L215.431 942.972H212.431L211.931 946.472L209.931 947.972L208.931 953.472L214.431 953.972C214.598 953.972 210.431 961.472 208.931 963.472C206.531 966.672 206.764 968.639 205.931 970.972L202.931 976.472L198.931 978.972H193.431L192.931 972.472L195.431 967.972L196.931 959.972L201.931 953.472L204.931 949.472L206.931 930.972V913.472L209.931 911.472L215.431 910.472L211.681 905.972L211.153 905.338M250.931 942.972V697.772M329.931 101.972L327.931 98.9719L325.431 99.4719L322.931 95.9719L321.431 93.4719L320.431 90.4719V86.9719L321.431 84.4719L323.931 82.4719L325.181 81.9719M329.931 101.972L331.431 95.9719L333.931 89.9719L338.931 95.9719L342.931 101.972L345.431 101.472V96.9719L346.431 92.9719L354.431 93.4719V89.4719H378.931V81.9719M329.931 101.972V709.472M329.931 709.472H332.931H336.931L340.431 707.972L342.431 705.472L342.931 700.972L345.931 698.472L350.431 699.472H354.931L357.431 698.472L357.931 694.972L354.931 693.472L350.931 692.972V690.472L353.431 687.472L354.431 684.472L359.431 685.472L361.931 682.472L364.431 679.472L367.931 677.972L369.431 670.472V657.972L372.618 655.722M329.931 709.472L326.431 708.972V704.472L322.931 702.972L321.931 706.472L319.931 711.472L311.431 708.472L308.931 703.972L306.931 709.972L305.931 714.472L313.431 717.972L319.931 722.472H324.431L329.931 725.384M329.931 737.472L332.931 726.972L329.931 725.384M329.931 737.472V725.384M329.931 737.472L329.63 740.329M87.431 629.972H92.931C97.931 629.972 90.2583 625.138 93.931 625.472C99.431 625.972 103.431 624.972 111.431 623.472H116.931L122.931 621.972L127.431 618.972L132.431 613.972L135.431 610.472L136.931 604.972L140.931 606.472C142.098 605.139 143.707 603.104 144.931 601.472C146.431 599.472 148.931 595.472 149.931 593.472L150.931 588.472C151.931 587.472 155.231 589.572 158.431 587.972C161.631 586.372 161.431 584.472 160.431 582.972C158.598 581.472 157.231 576.972 158.431 574.972C159.631 572.972 162.264 573.472 163.931 573.472L162.931 568.472L165.431 567.722M87.431 629.972L83.431 631.472L79.431 633.472H74.931L70.431 636.972L66.431 637.472V623.472L67.931 609.472L68.931 593.472L70.931 580.972L71.1431 573.972M87.431 629.972V405.362M87.431 405.362C86.1971 405.287 85.0178 404.972 84.431 404.972L80.931 407.972L78.431 410.472M87.431 405.362C88.3 405.415 89.196 405.35 89.931 404.972C90.8092 404.52 92.0088 400.214 93.431 398.472L99.431 401.972L96.931 408.472L99.431 412.472L101.431 406.972H109.931L131.431 389.472H139.431L142.931 385.972L139.431 378.472L148.431 373.972L150.931 367.972L142.431 363.472H124.931L125.431 357.972L130.931 356.972L138.431 357.49H141.431L143.931 360.972L147.931 358.49L152.431 354.972L155.431 344.972L152.431 343.472H146.431L149.931 341.472L150.931 336.972L153.431 335.472L156.431 334.972L157.743 331.472M165.431 567.722L167.931 566.972L168.931 570.472L168.431 575.972L172.431 574.972L172.764 573.972M165.431 567.722V327.322M165.431 327.322L163.931 327.472L157.931 330.972L157.743 331.472M165.431 327.322L173.931 326.472L184.931 325.972L184.431 318.972L179.431 308.472H169.431H165.431M165.431 308.472H161.431L155.931 301.472L148.431 304.472C148.431 301.972 148.431 296.272 148.431 293.472C148.431 290.672 153.431 278.639 155.931 272.972L156.431 267.972L161.431 266.972L162.431 258.472L164.431 250.472L166.32 241.972M165.431 308.472V246.472M165.431 100.676L169.431 104.972L163.931 122.472V129.472L169.431 137.472V147.472L176.931 152.972L178.901 165.972M165.431 100.676L155.931 90.4719V82.4719H148.431L139.431 87.4719L110.431 82.4719V81.9719M165.431 100.676V3.94247M165.431 3.94247C160.634 3.0221 155.65 2.03746 150.431 0.971924L145.931 4.97192L143.431 10.4719L139.431 12.4719C139.431 12.4719 133.134 30.4103 129.931 31.4719C126.728 32.5336 125.105 31.4435 120.931 30.4719L110.431 47.9719V54.4719L107.431 57.4719L110.431 62.9719V81.9719M165.431 3.94247C197.535 10.1025 221.244 13.3837 250.931 18.7716M250.931 18.7716C259.342 20.2981 268.233 21.9938 277.931 23.9719C282.263 28.6417 284.925 30.5832 290.931 33.9719C296.937 37.3607 304.931 37.9719 304.931 37.9719C307.931 48.4719 308.931 51.9719 313.931 61.9719C316.431 68.9719 321.431 75.9719 326.431 81.4719L325.181 81.9719M250.931 18.7716V672.926M250.931 672.926L254.931 679.472L256.931 678.472L259.431 672.972V681.472L257.931 686.972L255.931 689.472L253.931 693.472L251.431 696.472L250.931 697.772M250.931 672.926L249.431 670.472L240.931 670.972L234.431 669.972V666.472H238.931L240.931 662.472L241.431 655.722M250.931 697.772L248.931 702.972L246.931 705.972L240.431 705.472L237.931 708.472L234.931 709.972L229.931 712.472L226.931 716.472V719.972L230.431 721.972L234.931 722.972L240.431 724.472L245.431 725.472L245.931 727.472L247.431 729.472L243.431 729.972L240.931 730.972L236.431 732.972L231.431 733.472L229.431 735.972L227.931 738.972H224.431L223.431 740.329M329.931 790.472L333.931 785.972L330.431 780.972L333.431 774.472L331.931 764.972L336.931 761.472L340.431 754.972L334.431 751.472L329.931 747.79M329.931 790.472L325.931 794.972L314.931 805.472L303.688 815.872M329.931 790.472V747.79M329.931 747.79L328.931 746.972L329.63 740.329M419.431 47.2351L402.431 57.9719L384.431 70.4719L381.931 70.9719L378.931 71.4719V81.9719M419.431 47.2351L421.431 45.9719L423.931 41.9719L424.931 35.4719L421.431 30.9719L421.931 29.4719H425.431L428.931 28.4719L431.931 26.9719L434.431 24.9719L432.431 23.9719L429.931 23.4719V20.4719L431.431 18.4719L437.431 17.9719L447.431 25.4719L458.931 35.4719L467.431 43.9719L475.431 53.4719L482.431 62.9719L488.431 72.4719L493.181 81.9719M419.431 47.2351V536.472M419.431 536.472H422.431L428.431 538.472H432.431L435.931 517.472L438.931 506.472L440.431 498.972L442.931 498.472L445.931 501.472L449.431 501.972L450.431 505.972L452.431 506.472H455.431L456.931 503.472L459.431 504.472L462.431 506.472L460.931 511.972L463.431 514.472L467.931 516.472L473.931 517.472L480.931 516.972L481.931 507.972L482.198 495.972M419.431 536.472H409.931H402.431L397.431 534.972V528.972L398.931 522.972H394.431L392.431 524.472L379.431 521.472L366.931 517.472L363.431 520.972L358.431 518.972L357.431 524.472L354.931 525.972L352.931 527.972L355.931 530.472L359.931 530.972L363.431 534.472L367.931 534.922L369.431 540.472L374.931 541.972L376.431 543.972H379.431L378.931 549.972L379.431 554.472L375.931 554.972L374.931 558.972L373.431 565.472L368.931 568.472H362.931L358.931 566.472L353.931 567.472L353.431 571.972L343.931 570.472L334.931 567.472L332.931 571.472L332.375 573.972M495.431 86.4719L497.431 90.4719L500.431 99.9719L501.931 104.972L502.931 109.972L504.931 106.972L509.431 104.972L513.931 105.472L518.431 110.972L520.931 112.972L523.723 113.18L525.723 115.18L527.723 117.18L529.931 113.972L533.931 117.472L537.431 121.472C535.931 122.639 536.931 123.972 536.931 125.972C536.931 129.78 540.431 123.972 543.431 121.972L546.931 124.972L551.931 125.972L559.931 126.472L568.931 126.972L574.431 126.472L578.931 124.472L579.431 124.639M495.431 86.4719V290.895M495.431 86.4719L493.181 81.9719M495.431 290.895L498.431 289.972L505.431 288.472L512.431 287.472L518.931 285.972L525.931 284.972L532.431 282.972L539.431 282.472L545.431 280.972L546.431 291.972L558.431 302.472H570.931C572.431 302.972 572.931 303.472 572.931 307.472C572.931 309.429 575.683 307.078 579.431 304.107M495.431 290.895L491.931 291.972L491.431 294.972L495.431 296.51M495.431 296.51L497.931 297.472L503.931 298.972L501.931 310.972L498.931 322.972L496.931 331.472M495.431 296.51V336.68M495.431 336.68L492.931 346.472L486.431 344.972L478.931 365.972L474.431 368.972H469.931L468.931 375.972L466.431 386.972L463.431 399.472V404.972L471.431 406.472H479.931L489.931 403.472L494.931 401.472M495.431 336.68L496.931 331.472M494.931 401.472L499.931 399.472L509.431 394.972L518.931 389.972L528.431 388.472L543.431 387.472L561.431 386.472L578.931 384.472L579.36 385.472M494.931 401.472L495.431 488.222M495.431 488.222L496.931 488.472L502.431 495.972H509.931L508.931 492.472L508.431 486.472L513.931 483.972L520.931 480.972L528.431 478.472L535.431 476.972L539.931 477.972L543.181 480.472L546.431 482.972L552.931 483.472L554.931 477.972L562.931 471.472L570.431 461.472L573.431 458.972L575.431 455.472L578.931 450.972L579.36 450.758M495.431 488.222L493.931 487.972L490.931 486.972L490.431 481.972L487.431 485.972L482.431 485.472L482.198 495.972M579.431 124.639L581.931 125.472L583.431 126.972L585.431 124.972L586.931 123.472L590.431 124.472H612.931L617.431 122.472L621.931 120.472L632.431 126.972L634.431 131.972L633.931 135.972L631.931 136.972L630.931 137.972L629.931 139.972L630.931 142.472L635.431 147.972L637.931 148.972H640.931L639.931 154.472L642.431 158.972L645.431 160.472L647.431 162.972L645.556 165.972M579.431 124.639V304.107M579.431 304.107C583.345 301.005 588.344 297.227 592.431 296.972L597.931 298.972L604.431 302.472V315.472L603.431 327.472L603.306 331.472M579.36 385.472L580.431 387.972L583.431 390.472L582.931 397.972L581.931 401.472L583.431 404.972L587.431 405.972L590.431 407.472C590.394 408.481 590.37 409.483 590.358 410.472M579.36 385.472V450.758M579.36 450.758L581.931 449.472L580.431 442.972L583.431 439.972L584.931 434.972C587.264 434.139 589.402 437.187 590.431 435.472C591.819 433.159 590.211 422.713 590.358 410.472M493.181 81.9719H378.931M325.181 81.9719H110.431M178.901 165.972L179.431 169.472L172.931 192.472L169.431 233.972L166.431 241.472L166.32 241.972M178.901 165.972H645.556M645.556 165.972L644.931 166.972L643.931 170.472V173.972L642.431 178.972L643.931 183.472L642.931 187.972C644.931 189.639 646.431 192.872 646.431 194.472C646.431 196.072 649.431 197.305 650.431 198.472V205.972L651.431 213.472L650.431 217.972L652.931 222.472L655.431 225.472L654.931 229.972L655.931 234.472V240.972L655.99 241.972M655.99 241.972L656.431 249.472L659.431 250.472L660.431 252.972V259.972L657.931 261.472L656.931 262.972L654.931 263.972H653.431L650.931 267.972L647.431 271.472V275.972L649.931 278.472L651.931 280.472L649.931 284.472L651.431 286.972L648.431 288.972L646.431 290.472L647.931 295.472L650.431 299.472L654.431 307.972L656.431 311.972L657.931 316.472C656.431 319.472 654.688 319.472 653.688 322.972L640.931 328.472L634.931 331.222M655.99 241.972H166.32M157.743 331.472H496.931M603.306 331.472L602.931 343.472L615.931 339.472L628.931 333.972L634.931 331.222M603.306 331.472L634.931 331.222M78.431 410.472L77.931 410.972L71.931 411.472L60.931 426.472L63.931 430.972H55.931L53.931 435.472L51.931 438.972C51.2165 438.709 50.7709 438.476 49.931 437.972C49.931 437.972 48.431 436.972 47.931 435.472C47.431 433.972 34.5678 444.168 33.931 444.472C33.2942 444.776 18.8146 451.306 18.931 451.472L10.931 449.472L2.931 446.972L8.431 453.972L12.931 460.972L10.431 468.972L8.931 479.472L6.931 494.472L6.59767 495.972M78.431 410.472H590.358M482.198 495.972H6.59767M6.59767 495.972L5.931 498.972L4.431 508.472V518.472L3.431 531.472L1.431 537.472L0.931 549.972L3.931 550.472L5.431 571.972H9.431L17.931 568.972L30.431 565.972L52.931 560.972L61.931 561.972L71.431 564.472L71.1431 573.972M71.1431 573.972H172.764M172.764 573.972L174.431 568.972L171.431 563.972H175.431L177.931 559.972L180.931 555.972L179.431 552.472L180.931 548.472L185.431 545.472L188.931 539.972H196.431L197.431 541.972V566.472L196.431 573.222L196.32 573.972M196.32 573.972L195.431 579.972L196.931 598.472L197.431 617.472L218.431 631.972L226.431 637.972L228.931 640.472L231.931 642.472L232.931 644.972L236.931 647.472L241.931 648.972L241.431 655.722M196.32 573.972H332.375M332.375 573.972L331.931 575.972L334.431 581.472L339.431 589.972L343.931 594.472L344.931 599.472L347.431 595.472L353.431 593.972L360.431 594.972L366.931 595.472L368.431 600.472L373.431 601.972L389.931 593.972L387.431 600.972L384.431 603.972H380.931L379.431 617.472L378.431 630.972L379.431 640.472L377.931 651.972L372.618 655.722M241.431 655.722H372.618M223.431 740.329L222.431 741.686V744.186L224.431 746.472L233.431 755.972L241.931 766.472L240.431 769.972L242.431 772.972V775.972L244.931 780.972L243.431 782.972L242.431 786.472L244.431 787.972L243.931 790.472L242.431 793.972L238.431 794.972H234.931L233.931 799.472V803.972L232.931 807.472L230.931 808.972V813.472L232.931 815.872M223.431 740.329H329.63M232.931 815.872L233.431 816.472L230.431 818.972V821.472L228.931 823.972H225.431L225.931 827.972L225.431 831.972V836.472L224.931 840.472L228.431 844.472L231.431 845.972L233.931 848.972V854.972L233.431 860.972L230.931 864.972L228.431 869.472L227.431 874.472L225.431 871.972L221.931 870.472L220.931 876.972L215.431 880.972L214.431 887.472L206.931 895.472L204.431 899.972L207.931 901.472L211.153 905.338M232.931 815.872H303.688M303.688 815.872L294.931 823.972L293.431 850.972L296.431 856.972L300.931 860.972L306.431 863.472L313.931 867.472L308.431 873.472L308.931 879.472L305.431 881.972H301.431L295.931 886.472L290.431 887.472L284.431 884.972V891.972L282.431 897.472L280.037 905.338M211.153 905.338H280.037" stroke="black" stroke-width="1.8"/>
</svg>
