<svg width="980" height="662" viewBox="0 0 980 662" fill="none" xmlns="http://www.w3.org/2000/svg">
<path d="M36.9 250.931L41.4 253.431L38.9 257.931L48.4 265.431L63.4 275.931L70.9 278.931L74.5341 280.037M36.9 250.931L37.4 240.431L40.4 232.931L33.9 226.431L36.9 225.931L38.4 224.431L33.9 221.431L30.4 220.431L31.4 217.931L31.9 214.931L36.9 215.431V212.431L33.4 211.931L31.9 209.931L26.4 208.931L25.9 214.431C25.9 214.598 18.4 210.431 16.4 208.931C13.2 206.531 11.2334 206.764 8.90002 205.931L3.40002 202.931L0.900024 198.931V193.431L7.40002 192.931L11.9 195.431L19.9 196.931L26.4 201.931L30.4 204.931L48.9 206.931H66.4L68.4 209.931L69.4 215.431L73.9 211.681L74.5341 211.152M36.9 250.931L282.1 250.931M877.9 329.931L880.9 327.931L880.4 325.431L883.9 322.931L886.4 321.431L889.4 320.431H892.9L895.4 321.431L897.4 323.931L897.9 325.181M877.9 329.931L883.9 331.431L889.9 333.931L883.9 338.931L877.9 342.931L878.4 345.431H882.9L886.9 346.431L886.4 354.431H890.4V378.931H897.9M877.9 329.931L270.4 329.931M270.4 329.931V332.931V336.931L271.9 340.431L274.4 342.431L278.9 342.931L281.4 345.931L280.4 350.431V354.931L281.4 357.431L284.9 357.931L286.4 354.931L286.9 350.931H289.4L292.4 353.431L295.4 354.431L294.4 359.431L297.4 361.931L300.4 364.431L301.9 367.931L309.4 369.431H321.9L324.15 372.618M270.4 329.931L270.9 326.431H275.4L276.9 322.931L273.4 321.931L268.4 319.931L271.4 311.431L275.9 308.931L269.9 306.931L265.4 305.931L261.9 313.431L257.4 319.931V324.431L254.488 329.931M242.4 329.931L252.9 332.931L254.488 329.931M242.4 329.931H254.488M242.4 329.931L239.543 329.63M349.9 87.4309V92.9309C349.9 97.9309 354.734 90.2582 354.4 93.9309C353.9 99.4309 354.9 103.431 356.4 111.431V116.931L357.9 122.931L360.9 127.431L365.9 132.431L369.4 135.431L374.9 136.931L373.4 140.931C374.733 142.098 376.768 143.707 378.4 144.931C380.4 146.431 384.4 148.931 386.4 149.931L391.4 150.931C392.4 151.931 390.3 155.231 391.9 158.431C393.5 161.631 395.4 161.431 396.9 160.431C398.4 158.598 402.9 157.231 404.9 158.431C406.9 159.631 406.4 162.264 406.4 163.931L411.4 162.931L412.15 165.431M349.9 87.4309L348.4 83.4309L346.4 79.4309V74.9309L342.9 70.4309L342.4 66.4309H356.4L370.4 67.9309L386.4 68.9309L398.9 70.9309L405.9 71.143M349.9 87.4309L574.51 87.4309M574.51 87.4309C574.585 86.1971 574.9 85.0177 574.9 84.4309L571.9 80.9309L569.4 78.4309M574.51 87.4309C574.457 88.2999 574.522 89.1959 574.9 89.9309C575.352 90.8091 579.658 92.0087 581.4 93.4309L577.9 99.4309L571.4 96.9309L567.4 99.4309L572.9 101.431V109.931L590.4 131.431V139.431L593.9 142.931L601.4 139.431L605.9 148.431L611.9 150.931L616.4 142.431V124.931L621.9 125.431L622.9 130.931L622.382 138.431V141.431L618.9 143.931L621.382 147.931L624.9 152.431L634.9 155.431L636.4 152.431V146.431L638.4 149.931L642.9 150.931L644.4 153.431L644.9 156.431L648.4 157.743M412.15 165.431L412.9 167.931L409.4 168.931L403.9 168.431L404.9 172.431L405.9 172.764M412.15 165.431L652.55 165.431M652.55 165.431L652.4 163.931L648.9 157.931L648.4 157.743M652.55 165.431L653.4 173.931L653.9 184.931L660.9 184.431L671.4 179.431V169.431V165.431M671.4 165.431V161.431L678.4 155.931L675.4 148.431C677.9 148.431 683.6 148.431 686.4 148.431C689.2 148.431 701.233 153.431 706.9 155.931L711.9 156.431L712.9 161.431L721.4 162.431L729.4 164.431L737.9 166.32M671.4 165.431H733.4M879.196 165.431L874.9 169.431L857.4 163.931H850.4L842.4 169.431H832.4L826.9 176.931L813.9 178.901M879.196 165.431L889.4 155.931H897.4V148.431L892.4 139.431L897.4 110.431H897.9M879.196 165.431L975.929 165.431M975.929 165.431C976.85 160.634 977.834 155.65 978.9 150.431L974.9 145.931L969.4 143.431L967.4 139.431C967.4 139.431 949.462 133.133 948.4 129.931C947.338 126.728 948.428 125.105 949.4 120.931L931.9 110.431H925.4L922.4 107.431L916.9 110.431H897.9M975.929 165.431C969.769 197.535 966.488 221.244 961.1 250.931M961.1 250.931C959.574 259.342 957.878 268.233 955.9 277.931C951.23 282.263 949.289 284.925 945.9 290.931C942.511 296.937 941.9 304.931 941.9 304.931C931.4 307.931 927.9 308.931 917.9 313.931C910.9 316.431 903.9 321.431 898.4 326.431L897.9 325.181M961.1 250.931L306.945 250.931M306.945 250.931L300.4 254.931L301.4 256.931L306.9 259.431H298.4L292.9 257.931L290.4 255.931L286.4 253.931L283.4 251.431L282.1 250.931M306.945 250.931L309.4 249.431L308.9 240.931L309.9 234.431H313.4V238.931L317.4 240.931L324.15 241.431M282.1 250.931L276.9 248.931L273.9 246.931L274.4 240.431L271.4 237.931L269.9 234.931L267.4 229.931L263.4 226.931H259.9L257.9 230.431L256.9 234.931L255.4 240.431L254.4 245.431L252.4 245.931L250.4 247.431L249.9 243.431L248.9 240.931L246.9 236.431L246.4 231.431L243.9 229.431L240.9 227.931V224.431L239.543 223.431M189.4 329.931L193.9 333.931L198.9 330.431L205.4 333.431L214.9 331.931L218.4 336.931L224.9 340.431L228.4 334.431L232.082 329.931M189.4 329.931L184.9 325.931L174.4 314.931L164 303.688M189.4 329.931L232.082 329.931M232.082 329.931L232.9 328.931L239.543 329.63M932.637 419.431L921.9 402.431L909.4 384.431L908.9 381.931L908.4 378.931H897.9M932.637 419.431L933.9 421.431L937.9 423.931L944.4 424.931L948.9 421.431L950.4 421.931V425.431L951.4 428.931L952.9 431.931L954.9 434.431L955.9 432.431L956.4 429.931H959.4L961.4 431.431L961.9 437.431L954.4 447.431L944.4 458.931L935.9 467.431L926.4 475.431L916.9 482.431L907.4 488.431L897.9 493.181M932.637 419.431L443.4 419.431M443.4 419.431V422.431L441.4 428.431V432.431L462.4 435.931L473.4 438.931L480.9 440.431L481.4 442.931L478.4 445.931L477.9 449.431L473.9 450.431L473.4 452.431V455.431L476.4 456.931L475.4 459.431L473.4 462.431L467.9 460.931L465.4 463.431L463.4 467.931L462.4 473.931L462.9 480.931L471.9 481.931L483.9 482.198M443.4 419.431V409.931V402.431L444.9 397.431H450.9L456.9 398.931V394.431L455.4 392.431L458.4 379.431L462.4 366.931L458.9 363.431L460.9 358.431L455.4 357.431L453.9 354.931L451.9 352.931L449.4 355.931L448.9 359.931L445.4 363.431L444.95 367.931L439.4 369.431L437.9 374.931L435.9 376.431V379.431L429.9 378.931L425.4 379.431L424.9 375.931L420.9 374.931L414.4 373.431L411.4 368.931V362.931L413.4 358.931L412.4 353.931L407.9 353.431L409.4 343.931L412.4 334.931L408.4 332.931L405.9 332.375M893.4 495.431L889.4 497.431L879.9 500.431L874.9 501.931L869.9 502.931L872.9 504.931L874.9 509.431L874.4 513.931L868.9 518.431L866.9 520.931L866.692 523.723L864.692 525.723L862.692 527.723L865.9 529.931L862.4 533.931L858.4 537.431C857.233 535.931 855.9 536.931 853.9 536.931C850.092 536.931 855.9 540.431 857.9 543.431L854.9 546.931L853.9 551.931L853.4 559.931L852.9 568.931L853.4 574.431L855.4 578.931L855.233 579.431M893.4 495.431L688.977 495.431M893.4 495.431L897.9 493.181M688.977 495.431L689.9 498.431L691.4 505.431L692.4 512.431L693.9 518.931L694.9 525.931L696.9 532.431L697.4 539.431L698.9 545.431L687.9 546.431L677.4 558.431V570.931C676.9 572.431 676.4 572.931 672.4 572.931C670.443 572.931 672.794 575.683 675.765 579.431M688.977 495.431L687.9 491.931L684.9 491.431L683.362 495.431M683.362 495.431L682.4 497.931L680.9 503.931L668.9 501.931L656.9 498.931L648.4 496.931M683.362 495.431H643.192M643.192 495.431L633.4 492.931L634.9 486.431L613.9 478.931L610.9 474.431V469.931L603.9 468.931L592.9 466.431L580.4 463.431H574.9L573.4 471.431V479.931L576.4 489.931L578.4 494.931M643.192 495.431L648.4 496.931M578.4 494.931L580.4 499.931L584.9 509.431L589.9 518.931L591.4 528.431L592.4 543.431L593.4 561.431L595.4 578.931L594.4 579.359M578.4 494.931L491.65 495.431M491.65 495.431L491.4 496.931L483.9 502.431V509.931L487.4 508.931L493.4 508.431L495.9 513.931L498.9 520.931L501.4 528.431L502.9 535.431L501.9 539.931L499.4 543.181L496.9 546.431L496.4 552.931L501.9 554.931L508.4 562.931L518.4 570.431L520.9 573.431L524.4 575.431L528.9 578.931L529.114 579.359M491.65 495.431L491.9 493.931L492.9 490.931L497.9 490.431L493.9 487.431L494.4 482.431L483.9 482.198M855.233 579.431L854.4 581.931L852.9 583.431L854.9 585.431L856.4 586.931L855.4 590.431V612.931L857.4 617.431L859.4 621.931L852.9 632.431L847.9 634.431L843.9 633.931L842.9 631.931L841.9 630.931L839.9 629.931L837.4 630.931L831.9 635.431L830.9 637.931V640.931L825.4 639.931L820.9 642.431L819.4 645.431L816.9 647.431L813.9 645.556M855.233 579.431H675.765M675.765 579.431C678.867 583.345 682.645 588.344 682.9 592.431L680.9 597.931L677.4 604.431L664.4 604.431L652.4 603.431L648.4 603.306M594.4 579.359L591.9 580.431L589.4 583.431L581.9 582.931L578.4 581.931L574.9 583.431L573.9 587.431L572.4 590.431C571.391 590.394 570.389 590.37 569.4 590.358M594.4 579.359H529.114M529.114 579.359L530.4 581.931L536.9 580.431L539.9 583.431L544.9 584.931C545.733 587.264 542.685 589.402 544.4 590.431C546.713 591.819 557.158 590.21 569.4 590.358M897.9 493.181V378.931M897.9 325.181V110.431M813.9 178.901L810.4 179.431L787.4 172.931L745.9 169.431L738.4 166.431L737.9 166.32M813.9 178.901L813.9 645.556M813.9 645.556L812.9 644.931L809.4 643.931H805.9L800.9 642.431L796.4 643.931L791.9 642.931C790.233 644.931 787 646.431 785.4 646.431C783.8 646.431 782.567 649.431 781.4 650.431H773.9L766.4 651.431L761.9 650.431L757.4 652.931L754.4 655.431L749.9 654.931L745.4 655.931H738.9L737.9 655.99M737.9 655.99L730.4 656.431L729.4 659.431L726.9 660.431H719.9L718.4 657.931L716.9 656.931L715.9 654.931V653.431L711.9 650.931L708.4 647.431H703.9L701.4 649.931L699.4 651.931L695.4 649.931L692.9 651.431L690.9 648.431L689.4 646.431L684.4 647.931L680.4 650.431L671.9 654.431L667.9 656.431L663.4 657.931C660.4 656.431 660.4 654.687 656.9 653.687L651.4 640.931L648.65 634.931M737.9 655.99L737.9 166.32M648.4 157.743L648.4 496.931M648.4 603.306L636.4 602.931L640.4 615.931L645.9 628.931L648.65 634.931M648.4 603.306L648.65 634.931M569.4 78.4309L568.9 77.9309L568.4 71.9309L553.4 60.9309L548.9 63.9309V55.9309L544.4 53.9309L540.9 51.9309C541.163 51.2164 541.396 50.7708 541.9 49.9309C541.9 49.9309 542.9 48.4309 544.4 47.9309C545.9 47.4309 535.704 34.5677 535.4 33.9309C535.096 33.2941 528.566 18.8145 528.4 18.9309L530.4 10.9309L532.9 2.93091L525.9 8.43091L518.9 12.9309L510.9 10.4309L500.4 8.93091L485.4 6.93091L483.9 6.59757M569.4 78.4309L569.4 590.358M483.9 482.198L483.9 6.59757M483.9 6.59757L480.9 5.93091L471.4 4.43091L461.4 4.43091L448.4 3.43091L442.4 1.43091L429.9 0.930908L429.4 3.93091L407.9 5.43091V9.43091L410.9 17.9309L413.9 30.4309L418.9 52.9309L417.9 61.9309L415.4 71.4309L405.9 71.143M405.9 71.143V172.764M405.9 172.764L410.9 174.431L415.9 171.431V175.431L419.9 177.931L423.9 180.931L427.4 179.431L431.4 180.931L434.4 185.431L439.9 188.931V196.431L437.9 197.431L413.4 197.431L406.65 196.431L405.9 196.32M405.9 196.32L399.9 195.431L381.4 196.931L362.4 197.431L347.9 218.431L341.9 226.431L339.4 228.931L337.4 231.931L334.9 232.931L332.4 236.931L330.9 241.931L324.15 241.431M405.9 196.32L405.9 332.375M405.9 332.375L403.9 331.931L398.4 334.431L389.9 339.431L385.4 343.931L380.4 344.931L384.4 347.431L385.9 353.431L384.9 360.431L384.4 366.931L379.4 368.431L377.9 373.431L385.9 389.931L378.9 387.431L375.9 384.431V380.931L362.4 379.431L348.9 378.431L339.4 379.431L327.9 377.931L324.15 372.618M324.15 241.431L324.15 372.618M239.543 223.431L238.186 222.431H235.686L233.4 224.431L223.9 233.431L213.4 241.931L209.9 240.431L206.9 242.431H203.9L198.9 244.931L196.9 243.431L193.4 242.431L191.9 244.431L189.4 243.931L185.9 242.431L184.9 238.431V234.931L180.4 233.931H175.9L172.4 232.931L170.9 230.931H166.4L164 232.931M239.543 223.431L239.543 329.63M164 232.931L163.4 233.431L160.9 230.431H158.4L155.9 228.931V225.431L151.9 225.931L147.9 225.431H143.4L139.4 224.931L135.4 228.431L133.9 231.431L130.9 233.931L124.9 233.931L118.9 233.431L114.9 230.931L110.4 228.431L105.4 227.431L107.9 225.431L109.4 221.931L102.9 220.931L98.9 215.431L92.4 214.431L84.4 206.931L79.9 204.431L78.4 207.931L74.5341 211.152M164 232.931V303.688M164 303.688L155.9 294.931L128.9 293.431L122.9 296.431L118.9 300.931L116.4 306.431L112.4 313.931L106.4 308.431L100.4 308.931L97.9 305.431V301.431L93.4 295.931L92.4 290.431L94.9 284.431H87.9L82.4 282.431L74.5341 280.037M74.5341 211.152V280.037" stroke="black" stroke-width="1.8"/>
</svg>
